<?xml version="1.0" encoding="utf-8"?>
<!-- Generator: Adobe Illustrator 23.0.2, SVG Export Plug-In . SVG Version: 6.00 Build 0)  -->
<svg version="1.1" id="weather-icons" xmlns="http://www.w3.org/2000/svg" xmlns:xlink="http://www.w3.org/1999/xlink" x="0px"
	 y="0px" viewBox="0 0 402 50" enable-background="new 0 0 402 50" xml:space="preserve">
<g>
	<path fill="#FFFFFF" d="M27,10C17.1,8.8,8.8,17.1,10,27c0.9,6.7,6.3,12.1,13,13C32.9,41.2,41.2,32.9,40,23
		C39.1,16.3,33.7,10.9,27,10z M26.9,36c-7.6,1.3-14.2-5.3-12.9-12.9c0.8-4.6,4.5-8.4,9.1-9.1c7.6-1.3,14.2,5.3,12.9,12.9
		C35.3,31.5,31.5,35.3,26.9,36z"/>
	<path fill="#FFFFFF" d="M24.5,0L24.5,0c-1.1,0-2,0.9-2,2v2.7c0,1.1,0.9,2,2,2h0c1.1,0,2-0.9,2-2V2C26.4,0.9,25.5,0,24.5,0z"/>
	<path fill="#FFFFFF" d="M22.5,45.3V48c0,1.1,0.9,2,2,2h0c1.1,0,2-0.9,2-2v-2.7c0-1.1-0.9-2-2-2h0C23.4,43.4,22.5,44.3,22.5,45.3z"
		/>
	<path fill="#FFFFFF" d="M4.7,23H2c-1.1,0-2,0.9-2,2v0c0,1.1,0.9,2,2,2h2.7c1.1,0,2-0.9,2-2v0C6.6,23.9,5.7,23,4.7,23z"/>
	<path fill="#FFFFFF" d="M48,23h-2.7c-1.1,0-2,0.9-2,2v0c0,1.1,0.9,2,2,2H48c1.1,0,2-0.9,2-2v0C50,23.9,49.1,23,48,23z"/>
	<path fill="#FFFFFF" d="M11.5,9.7L9.6,7.8c-0.8-0.8-2-0.7-2.8,0l0,0c-0.8,0.8-0.7,2,0,2.8l1.9,1.9c0.8,0.8,2,0.7,2.8,0l0,0
		C12.3,11.7,12.3,10.5,11.5,9.7z"/>
	<path fill="#FFFFFF" d="M37.8,41.1l1.9,1.9c0.8,0.8,2,0.7,2.8,0l0,0c0.8-0.8,0.7-2,0-2.8l-1.9-1.9c-0.8-0.8-2-0.7-2.8,0l0,0
		C37,39.1,37,40.3,37.8,41.1z"/>
	<path fill="#FFFFFF" d="M7.5,42.8L7.5,42.8c0.8,0.8,2,0.7,2.8,0l1.9-1.9c0.8-0.8,0.7-2,0-2.8l0,0c-0.8-0.8-2-0.7-2.8,0l-1.9,1.9
		C6.7,40.8,6.7,42.1,7.5,42.8z"/>
	<path fill="#FFFFFF" d="M40.7,11.9l1.9-1.9c0.8-0.8,0.7-2,0-2.8l0,0c-0.8-0.8-2-0.7-2.8,0l-1.9,1.9c-0.8,0.8-0.7,2,0,2.8l0,0
		C38.7,12.6,39.9,12.6,40.7,11.9z"/>
</g>
<g>
	<path fill="#FFFFFF" d="M99,26.2c-0.8-0.5-1.8-0.5-2.5-0.1c-2.7,1.6-5.8,2.4-8.9,2.4c-9.8,0-17.8-8-17.8-17.8
		c0-2.4,0.5-4.7,1.4-6.8C71.5,3,71.3,2,70.7,1.3c-0.6-0.7-1.6-1-2.4-0.7C57.5,3.7,50,13.6,50,24.8C50,38.7,61.3,50,75.1,50
		c12.3,0,23-9.2,24.9-21.4C100.2,27.7,99.8,26.8,99,26.2z M75.1,45.5c-11.4,0-20.7-9.3-20.7-20.7c0-7.8,4.4-14.8,11.2-18.3
		c-0.3,1.4-0.4,2.8-0.4,4.2C65.2,23,75.3,33,87.6,33c2.4,0,4.7-0.4,6.9-1.1C91.6,39.9,83.9,45.5,75.1,45.5z"/>
	<path fill="#FFFFFF" d="M84.5,9.6l2.9,1.5c0,0,0.1,0.1,0.1,0.1l1.5,2.9c0.1,0.2,0.4,0.2,0.4,0l1.5-2.9c0,0,0.1-0.1,0.1-0.1l2.9-1.5
		c0.2-0.1,0.2-0.4,0-0.4L91,7.6c0,0-0.1-0.1-0.1-0.1l-1.5-2.9c-0.1-0.2-0.4-0.2-0.4,0l-1.5,2.9c0,0-0.1,0.1-0.1,0.1l-2.9,1.5
		C84.3,9.2,84.3,9.5,84.5,9.6z"/>
	<path fill="#FFFFFF" d="M79.5,3.8C79.5,3.8,79.6,3.8,79.5,3.8l0.9,1.7c0.1,0.1,0.2,0.1,0.3,0l0.9-1.6c0,0,0,0,0.1-0.1l1.6-0.9
		c0.1-0.1,0.1-0.2,0-0.3l-1.6-0.9c0,0,0,0-0.1-0.1l-0.9-1.6c-0.1-0.1-0.2-0.1-0.3,0l-0.9,1.6c0,0,0,0-0.1,0.1l-1.6,0.9
		c-0.1,0.1-0.1,0.2,0,0.3L79.5,3.8z"/>
</g>
<g>
	<rect x="101" fill="none" width="50" height="50"/>
	<g>
		<path fill="#FFFFFF" d="M136.5,42.5h-18c-4.8,0-9.3-1.9-12.7-5.4c-3.3-3.5-5-8.1-4.8-12.9c0.4-8.7,7.5-15.9,16.2-16.6
			c5.8-0.4,11.5,2.1,15,6.6c1.7-0.5,3.5-0.7,5.3-0.6h0c7.3,0.5,13.2,6.6,13.5,14c0.1,4-1.3,7.7-4.1,10.6
			C144.2,40.9,140.5,42.5,136.5,42.5z M118.5,11.4c-0.3,0-0.7,0-1,0c-6.7,0.5-12.2,6.1-12.5,12.9c-0.2,3.8,1.1,7.3,3.7,10
			c2.6,2.7,6.1,4.2,9.8,4.2h18c2.9,0,5.6-1.1,7.6-3.2c2-2.1,3.1-4.8,3-7.7c-0.2-5.3-4.5-9.8-9.8-10.2c-1.7-0.1-3.3,0.2-4.8,0.8
			c-1,0.4-2.1,0.1-2.7-0.8C127.2,13.6,123.1,11.4,118.5,11.4z"/>
	</g>
</g>
<g>
	<path fill="#FFFFFF" d="M188.5,8.3c-1.5-0.1-3,0-4.4,0.4c-0.6,0.1-1.1-0.1-1.5-0.5c-3.6-4.1-8.9-6.3-14.4-5.9
		c-8.6,0.6-15.7,7.9-16.2,16.6c-0.4,7.9,4.6,15.1,12,17.5c0.8,0.3,1.7-0.2,1.9-1.1l0.2-1c0.2-0.7-0.2-1.5-1-1.7
		c-5.7-1.9-9.5-7.4-9.2-13.5c0.3-6.7,5.8-12.4,12.5-12.9c4.9-0.4,9.6,2,12.4,6.1c0.6,0.8,1.6,1.2,2.5,0.8c1.5-0.7,3.2-0.9,4.9-0.8
		c5.3,0.4,9.6,4.8,9.8,10.2c0.2,5.1-3.4,9.6-8.2,10.7c-0.7,0.2-1.2,0.8-1.2,1.6l0.1,1c0.1,0.9,0.9,1.5,1.8,1.3
		c6.8-1.4,11.7-7.6,11.4-14.7C201.8,15,195.8,8.8,188.5,8.3z"/>
	<g>
		<path fill="#FFFFFF" d="M183.4,39c-0.8,0-1.5,0.7-1.5,1.5v1.5c0,0.8,0.7,1.5,1.5,1.5c0.8,0,1.5-0.7,1.5-1.5v-1.5
			C184.9,39.6,184.2,39,183.4,39z"/>
		<path fill="#FFFFFF" d="M183.4,25.8c-0.8,0-1.5,0.7-1.5,1.5v9.1c0,0.8,0.7,1.5,1.5,1.5c0.8,0,1.5-0.7,1.5-1.5v-9.1
			C184.9,26.5,184.2,25.8,183.4,25.8z"/>
		<path fill="#FFFFFF" d="M170.6,39.3c-0.8,0-1.5,0.7-1.5,1.5v1.5c0,0.8,0.7,1.5,1.5,1.5c0.8,0,1.5-0.7,1.5-1.5v-1.5
			C172.1,40,171.4,39.3,170.6,39.3z"/>
		<path fill="#FFFFFF" d="M170.6,26.2c-0.8,0-1.5,0.7-1.5,1.5v9.1c0,0.8,0.7,1.5,1.5,1.5c0.8,0,1.5-0.7,1.5-1.5v-9.1
			C172.1,26.9,171.4,26.2,170.6,26.2z"/>
		<path fill="#FFFFFF" d="M177,43.3c-0.8,0-1.5,0.7-1.5,1.5v1.5c0,0.8,0.7,1.5,1.5,1.5c0.8,0,1.5-0.7,1.5-1.5v-1.5
			C178.5,44,177.8,43.3,177,43.3z"/>
		<path fill="#FFFFFF" d="M177,30.2c-0.8,0-1.5,0.7-1.5,1.5v9.1c0,0.8,0.7,1.5,1.5,1.5c0.8,0,1.5-0.7,1.5-1.5v-9.1
			C178.5,30.9,177.8,30.2,177,30.2z"/>
	</g>
	<rect x="152" fill="none" width="50" height="50"/>
</g>
<g>
	<rect x="202" fill="none" width="50" height="50"/>
	<g>
		<path fill="#FFFFFF" d="M227.1,50L227.1,50c-1.1,0-2-0.9-2-2V2c0-1.1,0.9-2,2-2l0,0c1.1,0,2,0.9,2,2V48
			C229,49.1,228.2,50,227.1,50z"/>
		<g>
			<path fill="#FFFFFF" d="M221.1,47.7L221.1,47.7c-0.6-0.6-0.6-1.5,0-2.1l4.9-5c0.6-0.6,1.5-0.6,2.1,0l4.8,5c0.6,0.6,0.6,1.5,0,2.1
				l0,0c-0.6,0.6-1.5,0.6-2.1,0l-2.8-2.8c-0.6-0.6-1.5-0.6-2.1,0l-2.8,2.9C222.6,48.2,221.7,48.3,221.1,47.7z"/>
		</g>
		<g>
			<path fill="#FFFFFF" d="M226,9.3l-4.9-5c-0.6-0.6-0.6-1.5,0-2.1l0,0c0.6-0.6,1.5-0.6,2.1,0l2.8,2.9c0.6,0.6,1.5,0.6,2.1,0
				l2.8-2.8c0.6-0.6,1.5-0.6,2.1,0l0,0c0.6,0.6,0.6,1.5,0,2.1l-4.8,5C227.6,9.9,226.6,9.9,226,9.3z"/>
		</g>
		<path fill="#FFFFFF" d="M245.4,39.7l-38.8-24.9c-0.9-0.6-1.2-1.8-0.6-2.7l0,0c0.6-0.9,1.8-1.2,2.7-0.6l38.8,24.9
			c0.9,0.6,1.2,1.8,0.6,2.7l0,0C247.5,40,246.3,40.3,245.4,39.7z"/>
		<g>
			<path fill="#FFFFFF" d="M241.2,41.8l-1.5-6.8c-0.2-0.8,0.3-1.6,1.1-1.8l6.8-1.4c0.8-0.2,1.6,0.3,1.7,1.1l0,0
				c0.2,0.8-0.3,1.6-1.1,1.7l-3.9,0.8c-0.8,0.2-1.3,1-1.1,1.8l0.9,3.9c0.2,0.8-0.3,1.6-1.1,1.7l0,0C242.1,43,241.4,42.5,241.2,41.8z
				"/>
		</g>
		<g>
			<path fill="#FFFFFF" d="M204.7,18.4L204.7,18.4c-0.2-0.8,0.3-1.6,1.1-1.7l3.9-0.9c0.8-0.2,1.3-1,1.1-1.8l-0.9-3.9
				c-0.2-0.8,0.3-1.6,1.1-1.8l0,0c0.8-0.2,1.6,0.3,1.8,1.1l1.6,6.8c0.2,0.8-0.3,1.6-1.1,1.8l-6.9,1.5
				C205.6,19.7,204.9,19.2,204.7,18.4z"/>
		</g>
		<path fill="#FFFFFF" d="M205.9,39.1L205.9,39.1c-0.6-0.9-0.3-2.1,0.6-2.7l38.8-24.9c0.9-0.6,2.1-0.3,2.7,0.6l0,0
			c0.6,0.9,0.3,2.1-0.6,2.7l-38.8,24.9C207.7,40.3,206.5,40,205.9,39.1z"/>
		<g>
			<path fill="#FFFFFF" d="M211.1,42.9L211.1,42.9c-0.8-0.2-1.3-1-1.1-1.7l0.9-3.9c0.2-0.8-0.3-1.6-1.1-1.8l-3.9-0.8
				c-0.8-0.2-1.3-0.9-1.1-1.7l0,0c0.2-0.8,0.9-1.3,1.7-1.1l6.8,1.4c0.8,0.2,1.3,1,1.1,1.8l-1.5,6.8C212.6,42.5,211.9,43,211.1,42.9z
				"/>
		</g>
		<g>
			<path fill="#FFFFFF" d="M247.6,19.5l-6.9-1.5c-0.8-0.2-1.3-1-1.1-1.8l1.6-6.8c0.2-0.8,1-1.3,1.8-1.1l0,0c0.8,0.2,1.3,1,1.1,1.8
				l-0.9,3.9c-0.2,0.8,0.3,1.6,1.1,1.8l3.9,0.9c0.8,0.2,1.3,0.9,1.1,1.7l0,0C249.1,19.2,248.4,19.7,247.6,19.5z"/>
		</g>
	</g>
</g>
<g>
	<path fill="#FFFFFF" d="M288.5,10.9c-1.8-0.1-3.6,0.1-5.3,0.6c-3.6-4.5-9.2-7-15-6.6c-8.6,0.6-15.7,7.9-16.2,16.6
		c-0.2,4.8,1.5,9.4,4.8,12.9c2.8,3,6.5,4.8,10.5,5.3c1.2,0.1,2.2-0.7,2.2-1.9v-0.1c0-1-0.8-1.8-1.7-1.9c-3.1-0.4-5.9-1.8-8.1-4.1
		c-2.6-2.7-3.9-6.3-3.7-10c0.3-6.7,5.8-12.4,12.5-12.9c4.9-0.4,9.6,2,12.4,6.1c0.6,0.8,1.6,1.2,2.5,0.8c1.5-0.7,3.2-0.9,4.9-0.8
		c5.3,0.4,9.6,4.8,9.8,10.2c0.1,2.9-1,5.6-3,7.7c-1.6,1.7-3.7,2.7-5.9,3.1c-1,0.2-1.7,0.9-1.7,1.9v0c0,1.2,1.1,2.1,2.3,1.9
		c3.1-0.5,5.9-1.9,8.2-4.2c3.2-3.3,4.7-7.9,3.9-12.6C300.7,16.4,295.1,11.4,288.5,10.9z"/>
	<g>
		<path fill="#FFFFFF" d="M274.2,44.9L274.2,44.9c-1-0.5-1.4-1.7-0.9-2.6l5.5-11h-8.3c-1.2,0-1.9-1.3-1.3-2.3l5.9-9.6
			c0.6-0.9,1.8-1.2,2.7-0.6l0,0c0.9,0.6,1.2,1.8,0.6,2.7l-3.7,5.9h7.9c1.1,0,1.9,1.2,1.4,2.2L276.8,44
			C276.3,45,275.1,45.4,274.2,44.9z"/>
	</g>
	<rect x="252" fill="none" width="50" height="50"/>
</g>
<g>
	<path fill="#FFFFFF" d="M342.8,16.4h-0.1c-1.1,0-2,0.9-2,2l0,0c0,1.1,0.9,2,2,2h0.2c2.6,0,4.8,1.9,5.1,4.4c0.3,2.9-2,5.4-4.9,5.4
		h-31.8c-1.1,0-2,0.9-2,2l0,0c0,1.1,0.9,2,2,2h31.8c5.1,0,9.2-4.3,8.9-9.5C351.7,20,347.5,16.4,342.8,16.4z"/>
	<path fill="#FFFFFF" d="M336.7,16.9c-0.3-4.7-4.5-8.3-9.2-8.3h-0.1c-1.1,0-2,0.9-2,2l0,0c0,1.1,0.9,2,2,2h0.2
		c2.6,0,4.8,1.9,5.1,4.4c0.3,2.9-2,5.4-4.9,5.4H304c-1.1,0-2,0.9-2,2l0,0c0,1.1,0.9,2,2,2h23.8C332.9,26.4,337,22.1,336.7,16.9z"/>
	<path fill="#FFFFFF" d="M304.3,41.4H330c1.1,0,2-0.9,2-2l0,0c0-1.1-0.9-2-2-2h-25.6c-1.1,0-2,0.9-2,2l0,0
		C302.3,40.5,303.2,41.4,304.3,41.4z"/>
	<rect x="302" fill="none" width="50" height="50"/>
</g>
<g>
	<g>
		<g>
			<path fill="#FFFFFF" d="M388.5,7.9c-1.5-0.1-3,0-4.4,0.4c-0.6,0.1-1.1-0.1-1.5-0.5c-3.6-4.1-8.9-6.3-14.4-5.9
				c-8.6,0.6-15.7,7.9-16.2,16.6c-0.4,7.9,4.6,15.1,12,17.5c0.8,0.3,1.7-0.2,1.9-1.1l0.2-1c0.2-0.7-0.2-1.5-1-1.7
				c-5.7-1.9-9.5-7.4-9.2-13.5c0.3-6.7,5.8-12.4,12.5-12.9c4.9-0.4,9.6,2,12.4,6.1c0.6,0.8,1.6,1.2,2.5,0.8c1.5-0.7,3.2-0.9,4.9-0.8
				c5.3,0.4,9.6,4.8,9.8,10.2c0.2,5.1-3.4,9.6-8.2,10.7c-0.7,0.2-1.2,0.8-1.2,1.6l0.1,1c0.1,0.9,0.9,1.5,1.8,1.3
				c6.8-1.4,11.7-7.6,11.4-14.7C401.8,14.5,395.8,8.4,388.5,7.9z"/>
			<g>
				<path fill="#FFFFFF" d="M370.6,38.9c-0.8,0-1.5,0.7-1.5,1.5v1.5c0,0.8,0.7,1.5,1.5,1.5c0.8,0,1.5-0.7,1.5-1.5v-1.5
					C372.1,39.5,371.4,38.9,370.6,38.9z"/>
				<path fill="#FFFFFF" d="M370.6,25.8c-0.8,0-1.5,0.7-1.5,1.5v9.1c0,0.8,0.7,1.5,1.5,1.5c0.8,0,1.5-0.7,1.5-1.5v-9.1
					C372.1,26.4,371.4,25.8,370.6,25.8z"/>
			</g>
			<g>
				<path fill="#FFFFFF" d="M378,43.8c-0.8,0-1.5,0.7-1.5,1.5v1.5c0,0.8,0.7,1.5,1.5,1.5c0.8,0,1.5-0.7,1.5-1.5v-1.5
					C379.5,44.4,378.8,43.8,378,43.8z"/>
				<path fill="#FFFFFF" d="M378,30.7c-0.8,0-1.5,0.7-1.5,1.5v9.1c0,0.8,0.7,1.5,1.5,1.5c0.8,0,1.5-0.7,1.5-1.5v-9.1
					C379.5,31.3,378.8,30.7,378,30.7z"/>
			</g>
			<g>
				<path fill="#FFFFFF" d="M385.7,42.7c-0.8,0-1.5,0.7-1.5,1.5v1.5c0,0.8,0.7,1.5,1.5,1.5c0.8,0,1.5-0.7,1.5-1.5v-1.5
					C387.2,43.4,386.5,42.7,385.7,42.7z"/>
				<path fill="#FFFFFF" d="M385.7,32.3c-0.8,0-1.5,0.5-1.5,1.1V40c0,0.6,0.7,1.1,1.5,1.1c0.8,0,1.5-0.5,1.5-1.1v-6.6
					C387.2,32.8,386.5,32.3,385.7,32.3z"/>
			</g>
		</g>
		<g>
			<path fill="#FFFFFF" d="M386.8,30.7L386.8,30.7c-0.3,0-0.6-0.3-0.6-0.6V15.2c0-0.3,0.3-0.6,0.6-0.6l0,0c0.3,0,0.6,0.3,0.6,0.6V30
				C387.4,30.4,387.1,30.7,386.8,30.7z"/>
			<g>
				<path fill="#FFFFFF" d="M384.8,29.9L384.8,29.9c-0.2-0.2-0.2-0.5,0-0.7l1.6-1.6c0.2-0.2,0.5-0.2,0.7,0l1.6,1.6
					c0.2,0.2,0.2,0.5,0,0.7l0,0c-0.2,0.2-0.5,0.2-0.7,0l-0.9-0.9c-0.2-0.2-0.5-0.2-0.7,0l-0.9,0.9C385.3,30.1,385,30.1,384.8,29.9z"
					/>
			</g>
			<g>
				<path fill="#FFFFFF" d="M386.4,17.6l-1.6-1.6c-0.2-0.2-0.2-0.5,0-0.7l0,0c0.2-0.2,0.5-0.2,0.7,0l0.9,0.9c0.2,0.2,0.5,0.2,0.7,0
					l0.9-0.9c0.2-0.2,0.5-0.2,0.7,0l0,0c0.2,0.2,0.2,0.5,0,0.7l-1.6,1.6C386.9,17.8,386.6,17.8,386.4,17.6z"/>
			</g>
			<path fill="#FFFFFF" d="M392.6,27.3l-12.5-8c-0.3-0.2-0.4-0.6-0.2-0.9l0,0c0.2-0.3,0.6-0.4,0.9-0.2l12.5,8
				c0.3,0.2,0.4,0.6,0.2,0.9l0,0C393.3,27.4,392.9,27.5,392.6,27.3z"/>
			<g>
				<path fill="#FFFFFF" d="M391.3,28l-0.5-2.2c-0.1-0.3,0.1-0.5,0.4-0.6l2.2-0.4c0.3-0.1,0.5,0.1,0.6,0.4l0,0
					c0.1,0.3-0.1,0.5-0.4,0.6l-1.2,0.3c-0.3,0.1-0.4,0.3-0.4,0.6l0.3,1.3c0.1,0.3-0.1,0.5-0.4,0.6l0,0
					C391.6,28.4,391.3,28.3,391.3,28z"/>
			</g>
			<g>
				<path fill="#FFFFFF" d="M379.6,20.5L379.6,20.5c-0.1-0.3,0.1-0.5,0.4-0.6l1.3-0.3c0.3-0.1,0.4-0.3,0.4-0.6l-0.3-1.2
					c-0.1-0.3,0.1-0.5,0.4-0.6l0,0c0.3-0.1,0.5,0.1,0.6,0.4l0.5,2.2c0.1,0.3-0.1,0.5-0.4,0.6l-2.2,0.5
					C379.9,20.9,379.6,20.8,379.6,20.5z"/>
			</g>
			<path fill="#FFFFFF" d="M380,27.2L380,27.2c-0.2-0.3-0.1-0.7,0.2-0.9l12.5-8c0.3-0.2,0.7-0.1,0.9,0.2l0,0
				c0.2,0.3,0.1,0.7-0.2,0.9l-12.5,8C380.5,27.5,380.1,27.4,380,27.2z"/>
			<g>
				<path fill="#FFFFFF" d="M381.6,28.4L381.6,28.4c-0.3-0.1-0.4-0.3-0.4-0.6l0.3-1.3c0.1-0.3-0.1-0.5-0.4-0.6l-1.2-0.3
					c-0.3-0.1-0.4-0.3-0.4-0.6l0,0c0.1-0.3,0.3-0.4,0.6-0.4l2.2,0.4c0.3,0.1,0.4,0.3,0.4,0.6l-0.5,2.2
					C382.1,28.3,381.9,28.4,381.6,28.4z"/>
			</g>
			<g>
				<path fill="#FFFFFF" d="M393.3,20.9l-2.2-0.5c-0.3-0.1-0.4-0.3-0.4-0.6l0.5-2.2c0.1-0.3,0.3-0.4,0.6-0.4l0,0
					c0.3,0.1,0.4,0.3,0.4,0.6l-0.3,1.2c-0.1,0.3,0.1,0.5,0.4,0.6l1.3,0.3c0.3,0.1,0.4,0.3,0.4,0.6l0,0
					C393.8,20.8,393.6,20.9,393.3,20.9z"/>
			</g>
		</g>
	</g>
	<rect x="352" fill="none" width="50" height="50"/>
</g>
</svg>
